<svg width="19" height="19" viewBox="0 0 19 19" fill="none" xmlns="http://www.w3.org/2000/svg">
<path d="M2.375 4.75H3.95833H16.625" stroke="#595959" stroke-width="2" stroke-linecap="round" stroke-linejoin="round"/>
<path d="M6.33399 4.74998V3.16665C6.33399 2.74672 6.5008 2.34399 6.79773 2.04706C7.09467 1.75013 7.49739 1.58331 7.91732 1.58331H11.084C11.5039 1.58331 11.9066 1.75013 12.2036 2.04706C12.5005 2.34399 12.6673 2.74672 12.6673 3.16665V4.74998M15.0423 4.74998V15.8333C15.0423 16.2532 14.8755 16.656 14.5786 16.9529C14.2816 17.2498 13.8789 17.4166 13.459 17.4166H5.54232C5.12239 17.4166 4.71966 17.2498 4.42273 16.9529C4.1258 16.656 3.95898 16.2532 3.95898 15.8333V4.74998H15.0423Z" stroke="#595959" stroke-width="2" stroke-linecap="round" stroke-linejoin="round"/>
<path d="M7.91602 8.70831V13.4583" stroke="#595959" stroke-width="2" stroke-linecap="round" stroke-linejoin="round"/>
<path d="M11.084 8.70831V13.4583" stroke="#595959" stroke-width="2" stroke-linecap="round" stroke-linejoin="round"/>
</svg>
