<svg width="18" height="18" viewBox="0 0 18 18" fill="none" xmlns="http://www.w3.org/2000/svg">
<g clip-path="url(#clip0)">
<path d="M10.2981 15.75C10.1663 15.9773 9.97701 16.166 9.74929 16.2971C9.52158 16.4283 9.26341 16.4973 9.00062 16.4973C8.73784 16.4973 8.47967 16.4283 8.25195 16.2971C8.02424 16.166 7.83498 15.9773 7.70312 15.75" stroke="#595959" stroke-width="2" stroke-linecap="round" stroke-linejoin="round"/>
<path d="M13.9723 9.75C13.6386 8.52856 13.4795 7.26603 13.4998 6" stroke="#595959" stroke-width="2" stroke-linecap="round" stroke-linejoin="round"/>
<path d="M4.695 4.69501C4.5647 5.11772 4.49896 5.55767 4.5 6.00001C4.5 11.25 2.25 12.75 2.25 12.75H12.75" stroke="#595959" stroke-width="2" stroke-linecap="round" stroke-linejoin="round"/>
<path d="M13.4995 6.00002C13.5007 5.18482 13.2804 4.3846 12.8622 3.68484C12.444 2.98508 11.8436 2.41207 11.125 2.027C10.4065 1.64194 9.59688 1.45929 8.78263 1.49858C7.96837 1.53786 7.18008 1.79759 6.50195 2.25002" stroke="#595959" stroke-width="2" stroke-linecap="round" stroke-linejoin="round"/>
<path d="M0.75 0.75L17.25 17.25" stroke="#595959" stroke-width="2" stroke-linecap="round" stroke-linejoin="round"/>
</g>
<defs>
<clipPath id="clip0">
<rect width="18" height="18" fill="white"/>
</clipPath>
</defs>
</svg>
