<svg width="40" height="24" viewBox="0 0 40 24" fill="none" xmlns="http://www.w3.org/2000/svg">
<g clip-path="url(#clip0)">
<path d="M12.5827 23.3152C19.1047 23.3152 24.3919 18.0978 24.3919 11.6616C24.3919 5.22549 19.1047 0.00799561 12.5827 0.00799561C6.0606 0.00799561 0.773438 5.22549 0.773438 11.6616C0.773438 18.0978 6.0606 23.3152 12.5827 23.3152Z" fill="#EE0005"/>
<path d="M27.2545 23.3152C33.7765 23.3152 39.0637 18.0977 39.0637 11.6615C39.0637 5.22543 33.7765 0.00793457 27.2545 0.00793457C20.7324 0.00793457 15.4453 5.22543 15.4453 11.6615C15.4453 18.0977 20.7324 23.3152 27.2545 23.3152Z" fill="#F9A000"/>
<path d="M15.4453 11.6614C15.4453 15.3617 17.1932 18.6588 19.9184 20.7935C22.6435 18.6587 24.3915 15.3617 24.3915 11.6614C24.3915 7.96115 22.6436 4.66403 19.9184 2.52936C17.1933 4.66421 15.4453 7.96124 15.4453 11.6614Z" fill="#FF6300"/>
</g>
<defs>
<clipPath id="clip0">
<rect width="38.302" height="23.3143" fill="white" transform="translate(0.767578)"/>
</clipPath>
</defs>
</svg>
