<svg width="75" height="23" viewBox="0 0 75 23" fill="none" xmlns="http://www.w3.org/2000/svg">
<g clip-path="url(#clip0)">
<path d="M26.4482 22.176L30.1809 1.10291H36.2241L32.4916 22.176H26.4482Z" fill="#293688"/>
<path d="M54.0049 1.64764C52.8072 1.22057 50.9309 0.763184 48.5877 0.763184C42.6152 0.763184 38.4082 3.62203 38.372 7.71782C38.3388 10.7451 41.3751 12.4338 43.6689 13.4426C46.0212 14.4735 46.8122 15.135 46.8007 16.0562C46.7861 17.4687 44.9213 18.1144 43.1837 18.1144C40.7652 18.1137 39.4797 17.7948 37.4946 17.0084L36.7159 16.6726L35.8672 21.3901C37.2791 21.9786 39.8901 22.4889 42.6005 22.5147C48.9527 22.5133 53.0781 19.6899 53.1244 15.3148C53.1475 12.9179 51.5369 11.0937 48.05 9.58928C45.9372 8.61566 44.6432 7.9654 44.6572 6.97723C44.6572 6.10162 45.7531 5.16501 48.1186 5.16501C50.0949 5.13549 51.5268 5.54505 52.6429 5.97212L53.1837 6.21518L54.0049 1.64764Z" fill="#293688"/>
<path d="M64.3094 1.10291C62.8614 1.10291 61.8153 1.52565 61.179 2.89761L52.2227 22.1768H58.6211L59.8651 18.9476H67.5097L68.2199 22.1768H73.9082L68.9317 1.1035H64.3096L64.3094 1.10291ZM61.5627 14.7309C62.0619 13.5174 63.9697 8.84104 63.9697 8.84104C63.9351 8.89634 64.4664 7.62161 64.7715 6.83063L65.1805 8.64659C65.1805 8.64659 66.3366 13.677 66.5793 14.7315H61.5627V14.7309Z" fill="#293688"/>
<path d="M15.4274 15.5483L14.8951 12.6593C13.7921 9.29173 10.369 5.64801 6.5332 3.82241L11.8725 22.176H18.2724L27.8704 1.10291H21.4719L15.4274 15.5483Z" fill="#293688"/>
<path d="M-0.0361328 1.10291V1.44319C7.54697 3.18691 12.8116 7.59523 14.8958 12.6595L12.7046 2.90134C12.3388 1.56777 11.2303 1.14935 9.91857 1.1031L-0.0361328 1.10291Z" fill="#F7981D"/>
</g>
<defs>
<clipPath id="clip0">
<rect width="74.1061" height="21.649" fill="white" transform="translate(0 0.832642)"/>
</clipPath>
</defs>
</svg>
