<svg width="77" height="23" viewBox="0 0 77 23" fill="none" xmlns="http://www.w3.org/2000/svg">
<g clip-path="url(#clip0)">
<path d="M43.0452 3.12026L38.21 13.6164H37.7184V0.832642H30.8389V22.4789H36.6734C37.4241 22.4791 38.1591 22.2637 38.7913 21.8582C39.4235 21.4528 39.9266 20.8743 40.2408 20.1913L45.076 9.69516H45.5676V22.4789H52.4418V0.832642H46.6126C45.8619 0.832509 45.127 1.04792 44.4947 1.45335C43.8625 1.85878 43.3595 2.43726 43.0452 3.12026Z" fill="#20AA4D"/>
<path d="M17.2545 3.67737L14.3909 13.6353H13.8993L11.0358 3.67737C10.7994 2.85745 10.3035 2.13669 9.62279 1.62362C8.94209 1.11055 8.11342 0.832955 7.26159 0.832642L0.395508 0.832642V22.4816H7.26965V9.68709H7.76123L11.6778 22.4816H16.599L20.529 9.68709H21.0206V22.4816H27.8947V0.832642H21.0287C20.1768 0.832955 19.3482 1.11055 18.6675 1.62362C17.9868 2.13669 17.4909 2.85745 17.2545 3.67737Z" fill="#20AA4D"/>
<path d="M55.3936 10.6721V22.4816H62.2543V15.5918H69.6334C71.1557 15.591 72.6403 15.1175 73.8829 14.2364C75.1255 13.3554 76.065 12.1101 76.572 10.6721H55.3936Z" fill="#20AA4D"/>
<path d="M69.6342 0.832642H54.4111C54.8699 3.31889 56.1831 5.56571 58.1228 7.18313C60.0625 8.80055 62.5063 9.68646 65.0299 9.68708H76.8495C76.9474 9.20068 76.9969 8.70575 76.9972 8.20955C76.9965 6.25329 76.2205 4.37736 74.8398 2.99408C73.4592 1.61079 71.5867 0.833355 69.6342 0.832642" fill="url(#paint0_linear)"/>
</g>
<defs>
<linearGradient id="paint0_linear" x1="54.4111" y1="5.25986" x2="76.9999" y2="5.25986" gradientUnits="userSpaceOnUse">
<stop offset="0.01" stop-color="#00A7E3"/>
<stop offset="0.34" stop-color="#009EDC"/>
<stop offset="0.87" stop-color="#0085C9"/>
<stop offset="1" stop-color="#007EC4"/>
</linearGradient>
<clipPath id="clip0">
<rect width="76.6041" height="21.649" fill="white" transform="translate(0.395508 0.832642)"/>
</clipPath>
</defs>
</svg>
